<mxfile host="app.diagrams.net" modified="2022-04-19T17:06:53.830Z" agent="5.0 (X11; Linux x86_64) AppleWebKit/537.36 (KHTML, like Gecko) Chrome/78.0.3904.108 Safari/537.36" etag="OGjiIaIBst8nxp_wPr6P" version="17.4.5" type="github">
  <diagram id="tCA3b7V7rkpCgKGouU4P" name="PÃ¡gina-1">
    <mxGraphModel dx="1116" dy="672" grid="1" gridSize="10" guides="1" tooltips="1" connect="1" arrows="1" fold="1" page="1" pageScale="1" pageWidth="827" pageHeight="1169" math="0" shadow="1">
      <root>
        <mxCell id="0" />
        <mxCell id="1" parent="0" />
        <mxCell id="JrbC6fHpjMKqTfL63MD3-28" style="edgeStyle=orthogonalEdgeStyle;rounded=0;orthogonalLoop=1;jettySize=auto;html=1;exitX=0;exitY=0.5;exitDx=0;exitDy=0;entryX=0.5;entryY=0;entryDx=0;entryDy=0;endArrow=none;endFill=0;" parent="1" source="JrbC6fHpjMKqTfL63MD3-1" target="JrbC6fHpjMKqTfL63MD3-8" edge="1">
          <mxGeometry relative="1" as="geometry" />
        </mxCell>
        <mxCell id="JrbC6fHpjMKqTfL63MD3-32" style="edgeStyle=orthogonalEdgeStyle;rounded=0;orthogonalLoop=1;jettySize=auto;html=1;exitX=1;exitY=0.5;exitDx=0;exitDy=0;entryX=0.5;entryY=0;entryDx=0;entryDy=0;endArrow=none;endFill=0;" parent="1" source="JrbC6fHpjMKqTfL63MD3-1" target="JrbC6fHpjMKqTfL63MD3-30" edge="1">
          <mxGeometry relative="1" as="geometry" />
        </mxCell>
        <mxCell id="JrbC6fHpjMKqTfL63MD3-125" style="edgeStyle=orthogonalEdgeStyle;rounded=0;orthogonalLoop=1;jettySize=auto;html=1;exitX=0.5;exitY=1;exitDx=0;exitDy=0;endArrow=oval;endFill=1;" parent="1" edge="1">
          <mxGeometry relative="1" as="geometry">
            <mxPoint x="986" y="440" as="targetPoint" />
            <mxPoint x="1026" y="290" as="sourcePoint" />
            <Array as="points">
              <mxPoint x="986" y="290" />
            </Array>
          </mxGeometry>
        </mxCell>
        <mxCell id="JrbC6fHpjMKqTfL63MD3-142" style="edgeStyle=orthogonalEdgeStyle;rounded=0;orthogonalLoop=1;jettySize=auto;html=1;exitX=0.25;exitY=0;exitDx=0;exitDy=0;endArrow=oval;endFill=1;" parent="1" source="JrbC6fHpjMKqTfL63MD3-1" edge="1">
          <mxGeometry relative="1" as="geometry">
            <mxPoint x="1156.1764705882354" y="40" as="targetPoint" />
          </mxGeometry>
        </mxCell>
        <mxCell id="njBk4Wr4Tp1kpE1FgS2M-12" style="edgeStyle=orthogonalEdgeStyle;rounded=0;orthogonalLoop=1;jettySize=auto;html=1;exitX=0.25;exitY=1;exitDx=0;exitDy=0;entryX=1;entryY=0.5;entryDx=0;entryDy=0;endArrow=none;endFill=0;" parent="1" source="JrbC6fHpjMKqTfL63MD3-1" target="njBk4Wr4Tp1kpE1FgS2M-10" edge="1">
          <mxGeometry relative="1" as="geometry" />
        </mxCell>
        <mxCell id="njBk4Wr4Tp1kpE1FgS2M-13" style="edgeStyle=orthogonalEdgeStyle;rounded=0;orthogonalLoop=1;jettySize=auto;html=1;exitX=0.75;exitY=1;exitDx=0;exitDy=0;entryX=0;entryY=0.5;entryDx=0;entryDy=0;endArrow=none;endFill=0;" parent="1" source="JrbC6fHpjMKqTfL63MD3-1" target="njBk4Wr4Tp1kpE1FgS2M-11" edge="1">
          <mxGeometry relative="1" as="geometry" />
        </mxCell>
        <mxCell id="JrbC6fHpjMKqTfL63MD3-1" value="Cliente" style="rounded=0;whiteSpace=wrap;html=1;fontStyle=1" parent="1" vertex="1">
          <mxGeometry x="1126" y="90" width="120" height="40" as="geometry" />
        </mxCell>
        <mxCell id="JrbC6fHpjMKqTfL63MD3-136" style="edgeStyle=orthogonalEdgeStyle;rounded=0;orthogonalLoop=1;jettySize=auto;html=1;exitX=0.5;exitY=1;exitDx=0;exitDy=0;endArrow=oval;endFill=0;" parent="1" edge="1">
          <mxGeometry relative="1" as="geometry">
            <mxPoint x="997.1764705882354" y="420" as="targetPoint" />
            <mxPoint x="997" y="290" as="sourcePoint" />
            <Array as="points">
              <mxPoint x="997" y="320" />
              <mxPoint x="997" y="320" />
            </Array>
          </mxGeometry>
        </mxCell>
        <mxCell id="JrbC6fHpjMKqTfL63MD3-137" style="edgeStyle=orthogonalEdgeStyle;rounded=0;orthogonalLoop=1;jettySize=auto;html=1;exitX=0.5;exitY=1;exitDx=0;exitDy=0;endArrow=oval;endFill=0;" parent="1" edge="1">
          <mxGeometry relative="1" as="geometry">
            <mxPoint x="1010.1764705882354" y="400" as="targetPoint" />
            <mxPoint x="1010" y="290" as="sourcePoint" />
            <Array as="points">
              <mxPoint x="1010" y="320" />
              <mxPoint x="1010" y="320" />
            </Array>
          </mxGeometry>
        </mxCell>
        <mxCell id="JrbC6fHpjMKqTfL63MD3-139" style="edgeStyle=orthogonalEdgeStyle;rounded=0;orthogonalLoop=1;jettySize=auto;html=1;exitX=0.5;exitY=1;exitDx=0;exitDy=0;endArrow=oval;endFill=0;" parent="1" edge="1">
          <mxGeometry relative="1" as="geometry">
            <mxPoint x="1023.1764705882354" y="380" as="targetPoint" />
            <mxPoint x="1023" y="290" as="sourcePoint" />
            <Array as="points">
              <mxPoint x="1023" y="310" />
              <mxPoint x="1023" y="310" />
            </Array>
          </mxGeometry>
        </mxCell>
        <mxCell id="JrbC6fHpjMKqTfL63MD3-140" style="edgeStyle=orthogonalEdgeStyle;rounded=0;orthogonalLoop=1;jettySize=auto;html=1;exitX=0.5;exitY=1;exitDx=0;exitDy=0;endArrow=oval;endFill=0;" parent="1" source="JrbC6fHpjMKqTfL63MD3-2" edge="1">
          <mxGeometry relative="1" as="geometry">
            <mxPoint x="1036.1764705882354" y="360" as="targetPoint" />
          </mxGeometry>
        </mxCell>
        <mxCell id="JrbC6fHpjMKqTfL63MD3-2" value="Persona" style="rounded=0;whiteSpace=wrap;html=1;fontStyle=1" parent="1" vertex="1">
          <mxGeometry x="976" y="250" width="120" height="40" as="geometry" />
        </mxCell>
        <mxCell id="JrbC6fHpjMKqTfL63MD3-145" style="edgeStyle=orthogonalEdgeStyle;rounded=0;orthogonalLoop=1;jettySize=auto;html=1;exitX=0.5;exitY=1;exitDx=0;exitDy=0;endArrow=oval;endFill=0;" parent="1" edge="1">
          <mxGeometry relative="1" as="geometry">
            <mxPoint x="1370.1764705882351" y="310" as="targetPoint" />
            <mxPoint x="1370" y="290" as="sourcePoint" />
          </mxGeometry>
        </mxCell>
        <mxCell id="JrbC6fHpjMKqTfL63MD3-147" style="edgeStyle=orthogonalEdgeStyle;rounded=0;orthogonalLoop=1;jettySize=auto;html=1;exitX=0.5;exitY=1;exitDx=0;exitDy=0;endArrow=oval;endFill=0;" parent="1" edge="1">
          <mxGeometry relative="1" as="geometry">
            <mxPoint x="1357.3333333333335" y="350" as="targetPoint" />
            <mxPoint x="1357" y="290" as="sourcePoint" />
            <Array as="points">
              <mxPoint x="1357" y="310" />
              <mxPoint x="1357" y="310" />
            </Array>
          </mxGeometry>
        </mxCell>
        <mxCell id="JrbC6fHpjMKqTfL63MD3-148" style="edgeStyle=orthogonalEdgeStyle;rounded=0;orthogonalLoop=1;jettySize=auto;html=1;exitX=0.25;exitY=1;exitDx=0;exitDy=0;endArrow=oval;endFill=0;" parent="1" edge="1">
          <mxGeometry relative="1" as="geometry">
            <mxPoint x="1340.3333333333335" y="380" as="targetPoint" />
            <mxPoint x="1340" y="290" as="sourcePoint" />
            <Array as="points">
              <mxPoint x="1340" y="310" />
              <mxPoint x="1340" y="310" />
            </Array>
          </mxGeometry>
        </mxCell>
        <mxCell id="njBk4Wr4Tp1kpE1FgS2M-5" style="edgeStyle=orthogonalEdgeStyle;rounded=0;orthogonalLoop=1;jettySize=auto;html=1;exitX=0;exitY=0.5;exitDx=0;exitDy=0;entryX=0.5;entryY=0;entryDx=0;entryDy=0;endArrow=none;endFill=0;" parent="1" source="JrbC6fHpjMKqTfL63MD3-3" target="njBk4Wr4Tp1kpE1FgS2M-1" edge="1">
          <mxGeometry relative="1" as="geometry" />
        </mxCell>
        <mxCell id="JrbC6fHpjMKqTfL63MD3-3" value="Empresa" style="rounded=0;whiteSpace=wrap;html=1;fontStyle=1" parent="1" vertex="1">
          <mxGeometry x="1276" y="250" width="120" height="40" as="geometry" />
        </mxCell>
        <mxCell id="JrbC6fHpjMKqTfL63MD3-104" style="edgeStyle=orthogonalEdgeStyle;rounded=0;orthogonalLoop=1;jettySize=auto;html=1;exitX=0.25;exitY=1;exitDx=0;exitDy=0;endArrow=oval;endFill=1;" parent="1" source="JrbC6fHpjMKqTfL63MD3-6" edge="1">
          <mxGeometry relative="1" as="geometry">
            <mxPoint x="1156.3333333333335" y="590.0000000000001" as="targetPoint" />
          </mxGeometry>
        </mxCell>
        <mxCell id="JrbC6fHpjMKqTfL63MD3-106" style="edgeStyle=orthogonalEdgeStyle;rounded=0;orthogonalLoop=1;jettySize=auto;html=1;exitX=0.5;exitY=1;exitDx=0;exitDy=0;endArrow=oval;endFill=0;" parent="1" edge="1">
          <mxGeometry relative="1" as="geometry">
            <mxPoint x="1167.3333333333335" y="610" as="targetPoint" />
            <mxPoint x="1167" y="570.0000000000001" as="sourcePoint" />
            <Array as="points">
              <mxPoint x="1166" y="570" />
              <mxPoint x="1166" y="590" />
              <mxPoint x="1167" y="590" />
            </Array>
          </mxGeometry>
        </mxCell>
        <mxCell id="JrbC6fHpjMKqTfL63MD3-108" style="edgeStyle=orthogonalEdgeStyle;rounded=0;orthogonalLoop=1;jettySize=auto;html=1;exitX=0.5;exitY=1;exitDx=0;exitDy=0;endArrow=oval;endFill=0;" parent="1" edge="1">
          <mxGeometry relative="1" as="geometry">
            <mxPoint x="1176.9655172413793" y="630" as="targetPoint" />
            <mxPoint x="1176.9999999999998" y="570" as="sourcePoint" />
          </mxGeometry>
        </mxCell>
        <mxCell id="JrbC6fHpjMKqTfL63MD3-110" style="edgeStyle=orthogonalEdgeStyle;rounded=0;orthogonalLoop=1;jettySize=auto;html=1;exitX=0.5;exitY=1;exitDx=0;exitDy=0;endArrow=oval;endFill=0;" parent="1" edge="1">
          <mxGeometry relative="1" as="geometry">
            <mxPoint x="1187.9655172413793" y="651" as="targetPoint" />
            <mxPoint x="1187.9999999999998" y="571" as="sourcePoint" />
          </mxGeometry>
        </mxCell>
        <mxCell id="JrbC6fHpjMKqTfL63MD3-112" style="edgeStyle=orthogonalEdgeStyle;rounded=0;orthogonalLoop=1;jettySize=auto;html=1;exitX=0.75;exitY=1;exitDx=0;exitDy=0;endArrow=oval;endFill=0;" parent="1" edge="1">
          <mxGeometry relative="1" as="geometry">
            <mxPoint x="1200.3103448275863" y="670" as="targetPoint" />
            <mxPoint x="1199.9999999999998" y="570" as="sourcePoint" />
            <Array as="points">
              <mxPoint x="1201" y="570" />
              <mxPoint x="1201" y="620" />
              <mxPoint x="1200" y="620" />
            </Array>
          </mxGeometry>
        </mxCell>
        <mxCell id="JrbC6fHpjMKqTfL63MD3-6" value="Producto" style="rounded=0;whiteSpace=wrap;html=1;fontStyle=1" parent="1" vertex="1">
          <mxGeometry x="1126" y="530" width="120" height="40" as="geometry" />
        </mxCell>
        <mxCell id="JrbC6fHpjMKqTfL63MD3-12" style="edgeStyle=orthogonalEdgeStyle;rounded=0;orthogonalLoop=1;jettySize=auto;html=1;exitX=1;exitY=0.5;exitDx=0;exitDy=0;entryX=0;entryY=0.5;entryDx=0;entryDy=0;endArrow=none;endFill=0;" parent="1" source="JrbC6fHpjMKqTfL63MD3-7" target="JrbC6fHpjMKqTfL63MD3-11" edge="1">
          <mxGeometry relative="1" as="geometry">
            <mxPoint x="976" y="550" as="sourcePoint" />
          </mxGeometry>
        </mxCell>
        <mxCell id="JrbC6fHpjMKqTfL63MD3-38" style="edgeStyle=orthogonalEdgeStyle;rounded=0;orthogonalLoop=1;jettySize=auto;html=1;exitX=0.5;exitY=1;exitDx=0;exitDy=0;entryX=0.5;entryY=0;entryDx=0;entryDy=0;endArrow=none;endFill=0;" parent="1" source="JrbC6fHpjMKqTfL63MD3-7" target="JrbC6fHpjMKqTfL63MD3-36" edge="1">
          <mxGeometry relative="1" as="geometry" />
        </mxCell>
        <mxCell id="JrbC6fHpjMKqTfL63MD3-48" style="edgeStyle=orthogonalEdgeStyle;rounded=0;orthogonalLoop=1;jettySize=auto;html=1;exitX=0;exitY=0.5;exitDx=0;exitDy=0;entryX=1;entryY=0.5;entryDx=0;entryDy=0;endArrow=none;endFill=0;" parent="1" source="JrbC6fHpjMKqTfL63MD3-7" target="OYZd-i3R9D24Anv1cwW3-3" edge="1">
          <mxGeometry relative="1" as="geometry">
            <mxPoint x="606" y="610" as="targetPoint" />
          </mxGeometry>
        </mxCell>
        <mxCell id="JrbC6fHpjMKqTfL63MD3-60" style="edgeStyle=orthogonalEdgeStyle;rounded=0;orthogonalLoop=1;jettySize=auto;html=1;exitX=0.25;exitY=0;exitDx=0;exitDy=0;endArrow=oval;endFill=0;" parent="1" edge="1">
          <mxGeometry relative="1" as="geometry">
            <mxPoint x="796" y="480" as="targetPoint" />
            <mxPoint x="797" y="530.0000000000001" as="sourcePoint" />
            <Array as="points">
              <mxPoint x="796" y="530" />
            </Array>
          </mxGeometry>
        </mxCell>
        <mxCell id="JrbC6fHpjMKqTfL63MD3-61" style="edgeStyle=orthogonalEdgeStyle;rounded=0;orthogonalLoop=1;jettySize=auto;html=1;exitX=0.25;exitY=0;exitDx=0;exitDy=0;endArrow=oval;endFill=0;" parent="1" edge="1">
          <mxGeometry relative="1" as="geometry">
            <mxPoint x="805" y="460" as="targetPoint" />
            <mxPoint x="805" y="530.0000000000001" as="sourcePoint" />
            <Array as="points">
              <mxPoint x="806" y="530" />
              <mxPoint x="806" y="510" />
            </Array>
          </mxGeometry>
        </mxCell>
        <mxCell id="JrbC6fHpjMKqTfL63MD3-62" style="edgeStyle=orthogonalEdgeStyle;rounded=0;orthogonalLoop=1;jettySize=auto;html=1;exitX=0.25;exitY=0;exitDx=0;exitDy=0;endArrow=oval;endFill=0;" parent="1" edge="1">
          <mxGeometry relative="1" as="geometry">
            <mxPoint x="893" y="470.0000000000001" as="targetPoint" />
            <mxPoint x="893" y="530.0000000000001" as="sourcePoint" />
          </mxGeometry>
        </mxCell>
        <mxCell id="JrbC6fHpjMKqTfL63MD3-7" value="Alquiler" style="rounded=0;whiteSpace=wrap;html=1;fontStyle=1" parent="1" vertex="1">
          <mxGeometry x="786" y="530" width="120" height="40" as="geometry" />
        </mxCell>
        <mxCell id="JrbC6fHpjMKqTfL63MD3-29" style="edgeStyle=orthogonalEdgeStyle;rounded=0;orthogonalLoop=1;jettySize=auto;html=1;exitX=0.5;exitY=1;exitDx=0;exitDy=0;entryX=0.5;entryY=0;entryDx=0;entryDy=0;endArrow=none;endFill=0;" parent="1" source="JrbC6fHpjMKqTfL63MD3-8" target="JrbC6fHpjMKqTfL63MD3-7" edge="1">
          <mxGeometry relative="1" as="geometry" />
        </mxCell>
        <mxCell id="JrbC6fHpjMKqTfL63MD3-8" value="solicita" style="rhombus;whiteSpace=wrap;html=1;" parent="1" vertex="1">
          <mxGeometry x="806" y="300" width="80" height="80" as="geometry" />
        </mxCell>
        <mxCell id="JrbC6fHpjMKqTfL63MD3-13" style="edgeStyle=orthogonalEdgeStyle;rounded=0;orthogonalLoop=1;jettySize=auto;html=1;exitX=1;exitY=0.5;exitDx=0;exitDy=0;entryX=0;entryY=0.5;entryDx=0;entryDy=0;endArrow=none;endFill=0;" parent="1" source="JrbC6fHpjMKqTfL63MD3-11" target="JrbC6fHpjMKqTfL63MD3-6" edge="1">
          <mxGeometry relative="1" as="geometry" />
        </mxCell>
        <mxCell id="JrbC6fHpjMKqTfL63MD3-16" style="edgeStyle=orthogonalEdgeStyle;rounded=0;orthogonalLoop=1;jettySize=auto;html=1;exitX=0.5;exitY=0;exitDx=0;exitDy=0;endArrow=oval;endFill=0;" parent="1" source="JrbC6fHpjMKqTfL63MD3-11" edge="1">
          <mxGeometry relative="1" as="geometry">
            <mxPoint x="1016" y="480" as="targetPoint" />
          </mxGeometry>
        </mxCell>
        <mxCell id="JrbC6fHpjMKqTfL63MD3-11" value="alquilado" style="rhombus;whiteSpace=wrap;html=1;" parent="1" vertex="1">
          <mxGeometry x="976" y="510" width="80" height="80" as="geometry" />
        </mxCell>
        <mxCell id="JrbC6fHpjMKqTfL63MD3-14" value="(1,N)" style="text;html=1;align=center;verticalAlign=middle;resizable=0;points=[];autosize=1;strokeColor=none;fillColor=none;" parent="1" vertex="1">
          <mxGeometry x="906" y="530" width="40" height="20" as="geometry" />
        </mxCell>
        <mxCell id="JrbC6fHpjMKqTfL63MD3-17" value="estado" style="text;html=1;align=center;verticalAlign=middle;resizable=0;points=[];autosize=1;strokeColor=none;fillColor=none;" parent="1" vertex="1">
          <mxGeometry x="1015" y="470" width="50" height="20" as="geometry" />
        </mxCell>
        <mxCell id="JrbC6fHpjMKqTfL63MD3-42" style="edgeStyle=orthogonalEdgeStyle;rounded=0;orthogonalLoop=1;jettySize=auto;html=1;exitX=0.5;exitY=1;exitDx=0;exitDy=0;entryX=0.5;entryY=0;entryDx=0;entryDy=0;endArrow=none;endFill=0;" parent="1" source="JrbC6fHpjMKqTfL63MD3-21" target="JrbC6fHpjMKqTfL63MD3-40" edge="1">
          <mxGeometry relative="1" as="geometry" />
        </mxCell>
        <mxCell id="JrbC6fHpjMKqTfL63MD3-93" style="edgeStyle=orthogonalEdgeStyle;rounded=0;orthogonalLoop=1;jettySize=auto;html=1;exitX=1;exitY=0.25;exitDx=0;exitDy=0;endArrow=oval;endFill=1;" parent="1" edge="1">
          <mxGeometry relative="1" as="geometry">
            <mxPoint x="1586" y="532.8333333333334" as="targetPoint" />
            <mxPoint x="1566" y="533.0000000000001" as="sourcePoint" />
          </mxGeometry>
        </mxCell>
        <mxCell id="JrbC6fHpjMKqTfL63MD3-21" value="Compra" style="rounded=0;whiteSpace=wrap;html=1;fontStyle=1" parent="1" vertex="1">
          <mxGeometry x="1446" y="520" width="120" height="60" as="geometry" />
        </mxCell>
        <mxCell id="JrbC6fHpjMKqTfL63MD3-23" style="edgeStyle=orthogonalEdgeStyle;rounded=0;orthogonalLoop=1;jettySize=auto;html=1;exitX=1;exitY=0.5;exitDx=0;exitDy=0;entryX=0;entryY=0.5;entryDx=0;entryDy=0;endArrow=none;endFill=0;" parent="1" source="JrbC6fHpjMKqTfL63MD3-22" target="JrbC6fHpjMKqTfL63MD3-21" edge="1">
          <mxGeometry relative="1" as="geometry" />
        </mxCell>
        <mxCell id="JrbC6fHpjMKqTfL63MD3-24" style="edgeStyle=orthogonalEdgeStyle;rounded=0;orthogonalLoop=1;jettySize=auto;html=1;exitX=0;exitY=0.5;exitDx=0;exitDy=0;entryX=1;entryY=0.5;entryDx=0;entryDy=0;endArrow=none;endFill=0;" parent="1" source="JrbC6fHpjMKqTfL63MD3-22" target="JrbC6fHpjMKqTfL63MD3-6" edge="1">
          <mxGeometry relative="1" as="geometry" />
        </mxCell>
        <mxCell id="JrbC6fHpjMKqTfL63MD3-22" value="comprado" style="rhombus;whiteSpace=wrap;html=1;" parent="1" vertex="1">
          <mxGeometry x="1306" y="510" width="80" height="80" as="geometry" />
        </mxCell>
        <mxCell id="JrbC6fHpjMKqTfL63MD3-25" value="(1,N)" style="text;html=1;align=center;verticalAlign=middle;resizable=0;points=[];autosize=1;strokeColor=none;fillColor=none;" parent="1" vertex="1">
          <mxGeometry x="1405" y="529" width="40" height="20" as="geometry" />
        </mxCell>
        <mxCell id="JrbC6fHpjMKqTfL63MD3-31" style="edgeStyle=orthogonalEdgeStyle;rounded=0;orthogonalLoop=1;jettySize=auto;html=1;exitX=0.5;exitY=1;exitDx=0;exitDy=0;entryX=0.5;entryY=0;entryDx=0;entryDy=0;endArrow=none;endFill=0;" parent="1" source="JrbC6fHpjMKqTfL63MD3-30" target="JrbC6fHpjMKqTfL63MD3-21" edge="1">
          <mxGeometry relative="1" as="geometry" />
        </mxCell>
        <mxCell id="JrbC6fHpjMKqTfL63MD3-30" value="realiza" style="rhombus;whiteSpace=wrap;html=1;" parent="1" vertex="1">
          <mxGeometry x="1466" y="300" width="80" height="80" as="geometry" />
        </mxCell>
        <mxCell id="JrbC6fHpjMKqTfL63MD3-41" style="edgeStyle=orthogonalEdgeStyle;rounded=0;orthogonalLoop=1;jettySize=auto;html=1;exitX=1;exitY=0.5;exitDx=0;exitDy=0;entryX=0;entryY=0.5;entryDx=0;entryDy=0;endArrow=none;endFill=0;" parent="1" source="JrbC6fHpjMKqTfL63MD3-35" target="JrbC6fHpjMKqTfL63MD3-40" edge="1">
          <mxGeometry relative="1" as="geometry">
            <mxPoint x="1246" y="740" as="sourcePoint" />
          </mxGeometry>
        </mxCell>
        <mxCell id="JrbC6fHpjMKqTfL63MD3-157" style="edgeStyle=orthogonalEdgeStyle;rounded=0;orthogonalLoop=1;jettySize=auto;html=1;exitX=0.25;exitY=0;exitDx=0;exitDy=0;endArrow=oval;endFill=1;" parent="1" edge="1">
          <mxGeometry relative="1" as="geometry">
            <mxPoint x="1151.5" y="717" as="targetPoint" />
            <mxPoint x="1151.5" y="797" as="sourcePoint" />
          </mxGeometry>
        </mxCell>
        <mxCell id="JrbC6fHpjMKqTfL63MD3-158" style="edgeStyle=orthogonalEdgeStyle;rounded=0;orthogonalLoop=1;jettySize=auto;html=1;exitX=0.25;exitY=0;exitDx=0;exitDy=0;endArrow=oval;endFill=0;" parent="1" edge="1">
          <mxGeometry relative="1" as="geometry">
            <mxPoint x="1164.5" y="737" as="targetPoint" />
            <mxPoint x="1164.5" y="797" as="sourcePoint" />
            <Array as="points">
              <mxPoint x="1164.5" y="737" />
            </Array>
          </mxGeometry>
        </mxCell>
        <mxCell id="JrbC6fHpjMKqTfL63MD3-159" style="edgeStyle=orthogonalEdgeStyle;rounded=0;orthogonalLoop=1;jettySize=auto;html=1;exitX=0.5;exitY=0;exitDx=0;exitDy=0;endArrow=oval;endFill=0;" parent="1" edge="1">
          <mxGeometry relative="1" as="geometry">
            <mxPoint x="1176.5" y="757" as="targetPoint" />
            <mxPoint x="1176.5" y="797" as="sourcePoint" />
          </mxGeometry>
        </mxCell>
        <mxCell id="JrbC6fHpjMKqTfL63MD3-160" style="edgeStyle=orthogonalEdgeStyle;rounded=0;orthogonalLoop=1;jettySize=auto;html=1;exitX=0.5;exitY=0;exitDx=0;exitDy=0;endArrow=oval;endFill=0;" parent="1" edge="1">
          <mxGeometry relative="1" as="geometry">
            <mxPoint x="1188.5" y="777" as="targetPoint" />
            <mxPoint x="1188.5" y="797" as="sourcePoint" />
          </mxGeometry>
        </mxCell>
        <mxCell id="vegJUTZC-NedtnokfhXn-1" style="edgeStyle=orthogonalEdgeStyle;rounded=0;orthogonalLoop=1;jettySize=auto;html=1;exitX=0.75;exitY=1;exitDx=0;exitDy=0;endArrow=oval;endFill=0;" parent="1" source="JrbC6fHpjMKqTfL63MD3-35" edge="1">
          <mxGeometry relative="1" as="geometry">
            <mxPoint x="1193" y="880" as="targetPoint" />
          </mxGeometry>
        </mxCell>
        <mxCell id="JrbC6fHpjMKqTfL63MD3-35" value="Tarjeta" style="rounded=0;whiteSpace=wrap;html=1;fontStyle=1" parent="1" vertex="1">
          <mxGeometry x="1102.5" y="797" width="120" height="40" as="geometry" />
        </mxCell>
        <mxCell id="JrbC6fHpjMKqTfL63MD3-37" style="edgeStyle=orthogonalEdgeStyle;rounded=0;orthogonalLoop=1;jettySize=auto;html=1;exitX=1;exitY=0.5;exitDx=0;exitDy=0;entryX=0;entryY=0.5;entryDx=0;entryDy=0;endArrow=none;endFill=0;" parent="1" source="JrbC6fHpjMKqTfL63MD3-36" target="JrbC6fHpjMKqTfL63MD3-35" edge="1">
          <mxGeometry relative="1" as="geometry">
            <mxPoint x="1126" y="740" as="targetPoint" />
          </mxGeometry>
        </mxCell>
        <mxCell id="nKV0IDAUiu47R8Ns6cA8-9" style="edgeStyle=orthogonalEdgeStyle;rounded=0;orthogonalLoop=1;jettySize=auto;html=1;exitX=0;exitY=0.5;exitDx=0;exitDy=0;endArrow=oval;endFill=0;" parent="1" source="JrbC6fHpjMKqTfL63MD3-36" edge="1">
          <mxGeometry relative="1" as="geometry">
            <mxPoint x="780" y="816.8965517241379" as="targetPoint" />
          </mxGeometry>
        </mxCell>
        <mxCell id="JrbC6fHpjMKqTfL63MD3-36" value="paga&lt;br&gt;alquiler" style="rhombus;whiteSpace=wrap;html=1;" parent="1" vertex="1">
          <mxGeometry x="806" y="777" width="80" height="80" as="geometry" />
        </mxCell>
        <mxCell id="nKV0IDAUiu47R8Ns6cA8-7" style="edgeStyle=orthogonalEdgeStyle;rounded=0;orthogonalLoop=1;jettySize=auto;html=1;exitX=1;exitY=0.5;exitDx=0;exitDy=0;endArrow=oval;endFill=0;" parent="1" source="JrbC6fHpjMKqTfL63MD3-40" edge="1">
          <mxGeometry relative="1" as="geometry">
            <mxPoint x="1570" y="816.8965517241379" as="targetPoint" />
          </mxGeometry>
        </mxCell>
        <mxCell id="JrbC6fHpjMKqTfL63MD3-40" value="paga&lt;br&gt;compra" style="rhombus;whiteSpace=wrap;html=1;" parent="1" vertex="1">
          <mxGeometry x="1466" y="777" width="80" height="80" as="geometry" />
        </mxCell>
        <mxCell id="JrbC6fHpjMKqTfL63MD3-57" value="(0,1)" style="text;html=1;align=center;verticalAlign=middle;resizable=0;points=[];autosize=1;strokeColor=none;fillColor=none;" parent="1" vertex="1">
          <mxGeometry x="806" y="570" width="40" height="20" as="geometry" />
        </mxCell>
        <mxCell id="JrbC6fHpjMKqTfL63MD3-58" value="(0,1)" style="text;html=1;align=center;verticalAlign=middle;resizable=0;points=[];autosize=1;strokeColor=none;fillColor=none;" parent="1" vertex="1">
          <mxGeometry x="1466" y="581" width="40" height="20" as="geometry" />
        </mxCell>
        <mxCell id="JrbC6fHpjMKqTfL63MD3-63" value="fechaDev" style="text;html=1;align=center;verticalAlign=middle;resizable=0;points=[];autosize=1;strokeColor=none;fillColor=none;" parent="1" vertex="1">
          <mxGeometry x="728" y="471" width="70" height="20" as="geometry" />
        </mxCell>
        <mxCell id="JrbC6fHpjMKqTfL63MD3-64" value="fechaAlq" style="text;html=1;align=center;verticalAlign=middle;resizable=0;points=[];autosize=1;strokeColor=none;fillColor=none;" parent="1" vertex="1">
          <mxGeometry x="746" y="450" width="60" height="20" as="geometry" />
        </mxCell>
        <mxCell id="JrbC6fHpjMKqTfL63MD3-65" value="costoTotal" style="text;html=1;align=center;verticalAlign=middle;resizable=0;points=[];autosize=1;strokeColor=none;fillColor=none;" parent="1" vertex="1">
          <mxGeometry x="891" y="461" width="70" height="20" as="geometry" />
        </mxCell>
        <mxCell id="JrbC6fHpjMKqTfL63MD3-66" value="" style="curved=1;endArrow=oval;html=1;rounded=0;endFill=1;" parent="1" edge="1">
          <mxGeometry width="50" height="50" relative="1" as="geometry">
            <mxPoint x="846" y="210" as="sourcePoint" />
            <mxPoint x="820" y="510" as="targetPoint" />
            <Array as="points">
              <mxPoint x="570" y="550" />
            </Array>
          </mxGeometry>
        </mxCell>
        <mxCell id="JrbC6fHpjMKqTfL63MD3-67" value="(0,N)" style="text;html=1;align=center;verticalAlign=middle;resizable=0;points=[];autosize=1;strokeColor=none;fillColor=none;" parent="1" vertex="1">
          <mxGeometry x="1086" y="90" width="40" height="20" as="geometry" />
        </mxCell>
        <mxCell id="JrbC6fHpjMKqTfL63MD3-68" value="(1,1)" style="text;html=1;align=center;verticalAlign=middle;resizable=0;points=[];autosize=1;strokeColor=none;fillColor=none;" parent="1" vertex="1">
          <mxGeometry x="846" y="510" width="40" height="20" as="geometry" />
        </mxCell>
        <mxCell id="JrbC6fHpjMKqTfL63MD3-70" value="(0,N)" style="text;html=1;align=center;verticalAlign=middle;resizable=0;points=[];autosize=1;strokeColor=none;fillColor=none;" parent="1" vertex="1">
          <mxGeometry x="1246" y="90" width="40" height="20" as="geometry" />
        </mxCell>
        <mxCell id="JrbC6fHpjMKqTfL63MD3-71" value="(1,1)" style="text;html=1;align=center;verticalAlign=middle;resizable=0;points=[];autosize=1;strokeColor=none;fillColor=none;" parent="1" vertex="1">
          <mxGeometry x="1506" y="500" width="40" height="20" as="geometry" />
        </mxCell>
        <mxCell id="JrbC6fHpjMKqTfL63MD3-86" value="(0,1)" style="text;html=1;align=center;verticalAlign=middle;resizable=0;points=[];autosize=1;strokeColor=none;fillColor=none;" parent="1" vertex="1">
          <mxGeometry x="746" y="550" width="40" height="20" as="geometry" />
        </mxCell>
        <mxCell id="JrbC6fHpjMKqTfL63MD3-94" style="edgeStyle=orthogonalEdgeStyle;rounded=0;orthogonalLoop=1;jettySize=auto;html=1;exitX=1;exitY=0.25;exitDx=0;exitDy=0;endArrow=oval;endFill=0;" parent="1" edge="1">
          <mxGeometry relative="1" as="geometry">
            <mxPoint x="1587" y="545.8333333333333" as="targetPoint" />
            <mxPoint x="1567" y="546.0000000000002" as="sourcePoint" />
          </mxGeometry>
        </mxCell>
        <mxCell id="JrbC6fHpjMKqTfL63MD3-95" style="edgeStyle=orthogonalEdgeStyle;rounded=0;orthogonalLoop=1;jettySize=auto;html=1;exitX=1;exitY=0.25;exitDx=0;exitDy=0;endArrow=oval;endFill=0;" parent="1" edge="1">
          <mxGeometry relative="1" as="geometry">
            <mxPoint x="1587" y="557.8333333333333" as="targetPoint" />
            <mxPoint x="1567" y="558.0000000000002" as="sourcePoint" />
          </mxGeometry>
        </mxCell>
        <mxCell id="JrbC6fHpjMKqTfL63MD3-96" style="edgeStyle=orthogonalEdgeStyle;rounded=0;orthogonalLoop=1;jettySize=auto;html=1;exitX=1;exitY=0.25;exitDx=0;exitDy=0;endArrow=oval;endFill=0;" parent="1" edge="1">
          <mxGeometry relative="1" as="geometry">
            <mxPoint x="1587" y="568.8333333333333" as="targetPoint" />
            <mxPoint x="1567" y="569.0000000000002" as="sourcePoint" />
          </mxGeometry>
        </mxCell>
        <mxCell id="JrbC6fHpjMKqTfL63MD3-97" value="fecha" style="text;html=1;align=center;verticalAlign=middle;resizable=0;points=[];autosize=1;strokeColor=none;fillColor=none;" parent="1" vertex="1">
          <mxGeometry x="1588" y="536" width="40" height="20" as="geometry" />
        </mxCell>
        <mxCell id="JrbC6fHpjMKqTfL63MD3-98" value="#ticket" style="text;html=1;align=center;verticalAlign=middle;resizable=0;points=[];autosize=1;strokeColor=none;fillColor=none;" parent="1" vertex="1">
          <mxGeometry x="1584" y="523" width="50" height="20" as="geometry" />
        </mxCell>
        <mxCell id="JrbC6fHpjMKqTfL63MD3-99" value="seÃ±a" style="text;html=1;align=center;verticalAlign=middle;resizable=0;points=[];autosize=1;strokeColor=none;fillColor=none;" parent="1" vertex="1">
          <mxGeometry x="1586" y="548" width="40" height="20" as="geometry" />
        </mxCell>
        <mxCell id="JrbC6fHpjMKqTfL63MD3-100" value="valorTotal" style="text;html=1;align=center;verticalAlign=middle;resizable=0;points=[];autosize=1;strokeColor=none;fillColor=none;" parent="1" vertex="1">
          <mxGeometry x="1584" y="560" width="70" height="20" as="geometry" />
        </mxCell>
        <mxCell id="JrbC6fHpjMKqTfL63MD3-101" value="(0,N)" style="text;html=1;align=center;verticalAlign=middle;resizable=0;points=[];autosize=1;strokeColor=none;fillColor=none;" parent="1" vertex="1">
          <mxGeometry x="1086" y="528" width="40" height="20" as="geometry" />
        </mxCell>
        <mxCell id="JrbC6fHpjMKqTfL63MD3-103" value="(0,N)" style="text;html=1;align=center;verticalAlign=middle;resizable=0;points=[];autosize=1;strokeColor=none;fillColor=none;" parent="1" vertex="1">
          <mxGeometry x="1246" y="530" width="40" height="20" as="geometry" />
        </mxCell>
        <mxCell id="JrbC6fHpjMKqTfL63MD3-105" value="cod" style="text;html=1;align=center;verticalAlign=middle;resizable=0;points=[];autosize=1;strokeColor=none;fillColor=none;" parent="1" vertex="1">
          <mxGeometry x="1124" y="580" width="30" height="20" as="geometry" />
        </mxCell>
        <mxCell id="JrbC6fHpjMKqTfL63MD3-107" value="tipo" style="text;html=1;align=center;verticalAlign=middle;resizable=0;points=[];autosize=1;strokeColor=none;fillColor=none;" parent="1" vertex="1">
          <mxGeometry x="1136" y="600" width="30" height="20" as="geometry" />
        </mxCell>
        <mxCell id="JrbC6fHpjMKqTfL63MD3-109" value="descripcion" style="text;html=1;align=center;verticalAlign=middle;resizable=0;points=[];autosize=1;strokeColor=none;fillColor=none;" parent="1" vertex="1">
          <mxGeometry x="1100" y="620" width="80" height="20" as="geometry" />
        </mxCell>
        <mxCell id="JrbC6fHpjMKqTfL63MD3-111" value="pVen(0,1)" style="text;html=1;align=center;verticalAlign=middle;resizable=0;points=[];autosize=1;strokeColor=none;fillColor=none;" parent="1" vertex="1">
          <mxGeometry x="1120" y="640" width="70" height="20" as="geometry" />
        </mxCell>
        <mxCell id="JrbC6fHpjMKqTfL63MD3-113" value="pAlquiler" style="text;html=1;align=center;verticalAlign=middle;resizable=0;points=[];autosize=1;strokeColor=none;fillColor=none;" parent="1" vertex="1">
          <mxGeometry x="1140" y="660" width="60" height="20" as="geometry" />
        </mxCell>
        <mxCell id="JrbC6fHpjMKqTfL63MD3-117" style="edgeStyle=none;rounded=0;orthogonalLoop=1;jettySize=auto;html=1;exitX=1;exitY=0.75;exitDx=0;exitDy=0;endArrow=oval;endFill=0;" parent="1" source="JrbC6fHpjMKqTfL63MD3-2" edge="1">
          <mxGeometry relative="1" as="geometry">
            <mxPoint x="1120" y="325" as="targetPoint" />
            <mxPoint x="1100" y="335" as="sourcePoint" />
          </mxGeometry>
        </mxCell>
        <mxCell id="JrbC6fHpjMKqTfL63MD3-118" style="edgeStyle=none;rounded=0;orthogonalLoop=1;jettySize=auto;html=1;exitX=0.939;exitY=1.025;exitDx=0;exitDy=0;endArrow=oval;endFill=0;exitPerimeter=0;" parent="1" source="JrbC6fHpjMKqTfL63MD3-2" edge="1">
          <mxGeometry relative="1" as="geometry">
            <mxPoint x="1119.9999999999998" y="345" as="targetPoint" />
            <mxPoint x="1100" y="335" as="sourcePoint" />
          </mxGeometry>
        </mxCell>
        <mxCell id="JrbC6fHpjMKqTfL63MD3-119" style="edgeStyle=none;rounded=0;orthogonalLoop=1;jettySize=auto;html=1;exitX=0.75;exitY=1;exitDx=0;exitDy=0;endArrow=oval;endFill=0;" parent="1" source="JrbC6fHpjMKqTfL63MD3-2" edge="1">
          <mxGeometry relative="1" as="geometry">
            <mxPoint x="1119.9999999999998" y="365" as="targetPoint" />
            <mxPoint x="1100" y="335" as="sourcePoint" />
          </mxGeometry>
        </mxCell>
        <mxCell id="JrbC6fHpjMKqTfL63MD3-120" style="edgeStyle=none;rounded=0;orthogonalLoop=1;jettySize=auto;html=1;exitX=1;exitY=0.25;exitDx=0;exitDy=0;endArrow=oval;endFill=0;" parent="1" source="JrbC6fHpjMKqTfL63MD3-2" edge="1">
          <mxGeometry relative="1" as="geometry">
            <mxPoint x="1119.9999999999998" y="305" as="targetPoint" />
            <mxPoint x="1100" y="335" as="sourcePoint" />
          </mxGeometry>
        </mxCell>
        <mxCell id="JrbC6fHpjMKqTfL63MD3-121" value="calle" style="text;html=1;align=center;verticalAlign=middle;resizable=0;points=[];autosize=1;strokeColor=none;fillColor=none;" parent="1" vertex="1">
          <mxGeometry x="1120" y="295" width="40" height="20" as="geometry" />
        </mxCell>
        <mxCell id="JrbC6fHpjMKqTfL63MD3-122" value="nro" style="text;html=1;align=center;verticalAlign=middle;resizable=0;points=[];autosize=1;strokeColor=none;fillColor=none;" parent="1" vertex="1">
          <mxGeometry x="1120" y="315" width="30" height="20" as="geometry" />
        </mxCell>
        <mxCell id="JrbC6fHpjMKqTfL63MD3-123" value="piso(0,1)" style="text;html=1;align=center;verticalAlign=middle;resizable=0;points=[];autosize=1;strokeColor=none;fillColor=none;" parent="1" vertex="1">
          <mxGeometry x="1120" y="335" width="60" height="20" as="geometry" />
        </mxCell>
        <mxCell id="JrbC6fHpjMKqTfL63MD3-124" value="dpto(0,1)" style="text;html=1;align=center;verticalAlign=middle;resizable=0;points=[];autosize=1;strokeColor=none;fillColor=none;" parent="1" vertex="1">
          <mxGeometry x="1120" y="355" width="60" height="20" as="geometry" />
        </mxCell>
        <mxCell id="JrbC6fHpjMKqTfL63MD3-130" value="dni" style="text;html=1;align=center;verticalAlign=middle;resizable=0;points=[];autosize=1;strokeColor=none;fillColor=none;" parent="1" vertex="1">
          <mxGeometry x="986" y="431" width="30" height="20" as="geometry" />
        </mxCell>
        <mxCell id="JrbC6fHpjMKqTfL63MD3-131" value="nombre" style="text;html=1;align=center;verticalAlign=middle;resizable=0;points=[];autosize=1;strokeColor=none;fillColor=none;" parent="1" vertex="1">
          <mxGeometry x="994" y="411" width="60" height="20" as="geometry" />
        </mxCell>
        <mxCell id="JrbC6fHpjMKqTfL63MD3-132" value="apellido" style="text;html=1;align=center;verticalAlign=middle;resizable=0;points=[];autosize=1;strokeColor=none;fillColor=none;" parent="1" vertex="1">
          <mxGeometry x="1008" y="392" width="60" height="20" as="geometry" />
        </mxCell>
        <mxCell id="JrbC6fHpjMKqTfL63MD3-133" value="tel" style="text;html=1;align=center;verticalAlign=middle;resizable=0;points=[];autosize=1;strokeColor=none;fillColor=none;" parent="1" vertex="1">
          <mxGeometry x="1035" y="351" width="30" height="20" as="geometry" />
        </mxCell>
        <mxCell id="JrbC6fHpjMKqTfL63MD3-134" value="email" style="text;html=1;align=center;verticalAlign=middle;resizable=0;points=[];autosize=1;strokeColor=none;fillColor=none;" parent="1" vertex="1">
          <mxGeometry x="1024" y="371" width="40" height="20" as="geometry" />
        </mxCell>
        <mxCell id="JrbC6fHpjMKqTfL63MD3-143" value="nroCliente" style="text;html=1;align=center;verticalAlign=middle;resizable=0;points=[];autosize=1;strokeColor=none;fillColor=none;" parent="1" vertex="1">
          <mxGeometry x="1157" y="30" width="70" height="20" as="geometry" />
        </mxCell>
        <mxCell id="JrbC6fHpjMKqTfL63MD3-149" value="razonSoc" style="text;html=1;align=center;verticalAlign=middle;resizable=0;points=[];autosize=1;strokeColor=none;fillColor=none;" parent="1" vertex="1">
          <mxGeometry x="1338" y="369" width="70" height="20" as="geometry" />
        </mxCell>
        <mxCell id="JrbC6fHpjMKqTfL63MD3-150" value="mail" style="text;html=1;align=center;verticalAlign=middle;resizable=0;points=[];autosize=1;strokeColor=none;fillColor=none;" parent="1" vertex="1">
          <mxGeometry x="1367" y="301" width="40" height="20" as="geometry" />
        </mxCell>
        <mxCell id="JrbC6fHpjMKqTfL63MD3-154" value="sitioWeb(0,1)" style="text;html=1;align=center;verticalAlign=middle;resizable=0;points=[];autosize=1;strokeColor=none;fillColor=none;" parent="1" vertex="1">
          <mxGeometry x="1354" y="342" width="90" height="20" as="geometry" />
        </mxCell>
        <mxCell id="JrbC6fHpjMKqTfL63MD3-161" value="nroTarj" style="text;html=1;align=center;verticalAlign=middle;resizable=0;points=[];autosize=1;strokeColor=none;fillColor=none;" parent="1" vertex="1">
          <mxGeometry x="1151.5" y="707" width="50" height="20" as="geometry" />
        </mxCell>
        <mxCell id="JrbC6fHpjMKqTfL63MD3-163" value="banco" style="text;html=1;align=center;verticalAlign=middle;resizable=0;points=[];autosize=1;strokeColor=none;fillColor=none;" parent="1" vertex="1">
          <mxGeometry x="1174.5" y="747" width="50" height="20" as="geometry" />
        </mxCell>
        <mxCell id="JrbC6fHpjMKqTfL63MD3-164" value="entidad" style="text;html=1;align=center;verticalAlign=middle;resizable=0;points=[];autosize=1;strokeColor=none;fillColor=none;" parent="1" vertex="1">
          <mxGeometry x="1189.5" y="766" width="50" height="20" as="geometry" />
        </mxCell>
        <mxCell id="JrbC6fHpjMKqTfL63MD3-165" value="codSeg" style="text;html=1;align=center;verticalAlign=middle;resizable=0;points=[];autosize=1;strokeColor=none;fillColor=none;" parent="1" vertex="1">
          <mxGeometry x="1160.5" y="727" width="60" height="20" as="geometry" />
        </mxCell>
        <mxCell id="JrbC6fHpjMKqTfL63MD3-166" value="(0,N)" style="text;html=1;align=center;verticalAlign=middle;resizable=0;points=[];autosize=1;strokeColor=none;fillColor=none;" parent="1" vertex="1">
          <mxGeometry x="1062.5" y="797" width="40" height="20" as="geometry" />
        </mxCell>
        <mxCell id="JrbC6fHpjMKqTfL63MD3-167" value="(0,N)" style="text;html=1;align=center;verticalAlign=middle;resizable=0;points=[];autosize=1;strokeColor=none;fillColor=none;" parent="1" vertex="1">
          <mxGeometry x="1224.5" y="797" width="40" height="20" as="geometry" />
        </mxCell>
        <mxCell id="b2ZKoyOY4UfWilYa2dx6-1" value="si el pago se realizÃ³ en efectivo, directamente no tendrÃ¡ una tarjeta asociada, Ã©sta es la forma de identificarlo" style="shape=note;whiteSpace=wrap;html=1;backgroundOutline=1;darkOpacity=0.05;fillColor=#fff2cc;strokeColor=#d6b656;" parent="1" vertex="1">
          <mxGeometry x="1414" y="892" width="224" height="70" as="geometry" />
        </mxCell>
        <mxCell id="nKV0IDAUiu47R8Ns6cA8-8" value="#cuotas(0,1)" style="text;html=1;align=center;verticalAlign=middle;resizable=0;points=[];autosize=1;strokeColor=none;fillColor=none;" parent="1" vertex="1">
          <mxGeometry x="1570" y="807" width="80" height="20" as="geometry" />
        </mxCell>
        <mxCell id="nKV0IDAUiu47R8Ns6cA8-10" value="#cuotas(0,1)" style="text;html=1;align=center;verticalAlign=middle;resizable=0;points=[];autosize=1;strokeColor=none;fillColor=none;" parent="1" vertex="1">
          <mxGeometry x="701" y="807" width="80" height="20" as="geometry" />
        </mxCell>
        <mxCell id="vegJUTZC-NedtnokfhXn-2" value="tipo" style="text;html=1;align=center;verticalAlign=middle;resizable=0;points=[];autosize=1;strokeColor=none;fillColor=none;" parent="1" vertex="1">
          <mxGeometry x="1195.5" y="869" width="30" height="20" as="geometry" />
        </mxCell>
        <mxCell id="njBk4Wr4Tp1kpE1FgS2M-3" style="edgeStyle=orthogonalEdgeStyle;rounded=0;orthogonalLoop=1;jettySize=auto;html=1;exitX=0.5;exitY=1;exitDx=0;exitDy=0;entryX=0.5;entryY=0;entryDx=0;entryDy=0;endArrow=none;endFill=0;" parent="1" source="njBk4Wr4Tp1kpE1FgS2M-1" target="njBk4Wr4Tp1kpE1FgS2M-2" edge="1">
          <mxGeometry relative="1" as="geometry" />
        </mxCell>
        <mxCell id="njBk4Wr4Tp1kpE1FgS2M-1" value="contacto" style="rhombus;whiteSpace=wrap;html=1;" parent="1" vertex="1">
          <mxGeometry x="1214" y="355" width="80" height="52" as="geometry" />
        </mxCell>
        <mxCell id="njBk4Wr4Tp1kpE1FgS2M-6" style="edgeStyle=orthogonalEdgeStyle;rounded=0;orthogonalLoop=1;jettySize=auto;html=1;exitX=1;exitY=0.25;exitDx=0;exitDy=0;endArrow=oval;endFill=1;" parent="1" source="njBk4Wr4Tp1kpE1FgS2M-2" edge="1">
          <mxGeometry relative="1" as="geometry">
            <mxPoint x="1320" y="452.71428571428567" as="targetPoint" />
          </mxGeometry>
        </mxCell>
        <mxCell id="njBk4Wr4Tp1kpE1FgS2M-2" value="TelÃ©fono" style="rounded=0;whiteSpace=wrap;html=1;fontStyle=1" parent="1" vertex="1">
          <mxGeometry x="1202" y="445" width="104" height="30" as="geometry" />
        </mxCell>
        <mxCell id="njBk4Wr4Tp1kpE1FgS2M-7" value="telefono" style="text;html=1;align=center;verticalAlign=middle;resizable=0;points=[];autosize=1;strokeColor=none;fillColor=none;" parent="1" vertex="1">
          <mxGeometry x="1319" y="441" width="60" height="20" as="geometry" />
        </mxCell>
        <mxCell id="njBk4Wr4Tp1kpE1FgS2M-8" value="(1,N)" style="text;html=1;align=center;verticalAlign=middle;resizable=0;points=[];autosize=1;strokeColor=none;fillColor=none;" parent="1" vertex="1">
          <mxGeometry x="1236" y="250" width="40" height="20" as="geometry" />
        </mxCell>
        <mxCell id="njBk4Wr4Tp1kpE1FgS2M-9" value="(0,N)" style="text;html=1;align=center;verticalAlign=middle;resizable=0;points=[];autosize=1;strokeColor=none;fillColor=none;" parent="1" vertex="1">
          <mxGeometry x="1254" y="425" width="40" height="20" as="geometry" />
        </mxCell>
        <mxCell id="njBk4Wr4Tp1kpE1FgS2M-14" style="edgeStyle=orthogonalEdgeStyle;rounded=0;orthogonalLoop=1;jettySize=auto;html=1;exitX=0.5;exitY=1;exitDx=0;exitDy=0;entryX=0.5;entryY=0;entryDx=0;entryDy=0;endArrow=none;endFill=0;" parent="1" source="njBk4Wr4Tp1kpE1FgS2M-10" target="JrbC6fHpjMKqTfL63MD3-2" edge="1">
          <mxGeometry relative="1" as="geometry" />
        </mxCell>
        <mxCell id="njBk4Wr4Tp1kpE1FgS2M-10" value="es_persona" style="rhombus;whiteSpace=wrap;html=1;" parent="1" vertex="1">
          <mxGeometry x="996" y="160" width="80" height="50" as="geometry" />
        </mxCell>
        <mxCell id="njBk4Wr4Tp1kpE1FgS2M-15" style="edgeStyle=orthogonalEdgeStyle;rounded=0;orthogonalLoop=1;jettySize=auto;html=1;exitX=0.5;exitY=1;exitDx=0;exitDy=0;entryX=0.5;entryY=0;entryDx=0;entryDy=0;endArrow=none;endFill=0;" parent="1" source="njBk4Wr4Tp1kpE1FgS2M-11" target="JrbC6fHpjMKqTfL63MD3-3" edge="1">
          <mxGeometry relative="1" as="geometry" />
        </mxCell>
        <mxCell id="njBk4Wr4Tp1kpE1FgS2M-11" value="es_empresa" style="rhombus;whiteSpace=wrap;html=1;" parent="1" vertex="1">
          <mxGeometry x="1296" y="160" width="80" height="50" as="geometry" />
        </mxCell>
        <mxCell id="njBk4Wr4Tp1kpE1FgS2M-16" value="(0,1)" style="text;html=1;align=center;verticalAlign=middle;resizable=0;points=[];autosize=1;strokeColor=none;fillColor=none;" parent="1" vertex="1">
          <mxGeometry x="1115" y="130" width="40" height="20" as="geometry" />
        </mxCell>
        <mxCell id="njBk4Wr4Tp1kpE1FgS2M-17" value="(0,1)" style="text;html=1;align=center;verticalAlign=middle;resizable=0;points=[];autosize=1;strokeColor=none;fillColor=none;" parent="1" vertex="1">
          <mxGeometry x="1214" y="130" width="40" height="20" as="geometry" />
        </mxCell>
        <mxCell id="njBk4Wr4Tp1kpE1FgS2M-18" value="(1,1)" style="text;html=1;align=center;verticalAlign=middle;resizable=0;points=[];autosize=1;strokeColor=none;fillColor=none;" parent="1" vertex="1">
          <mxGeometry x="1030" y="230" width="40" height="20" as="geometry" />
        </mxCell>
        <mxCell id="njBk4Wr4Tp1kpE1FgS2M-19" value="(1,1)" style="text;html=1;align=center;verticalAlign=middle;resizable=0;points=[];autosize=1;strokeColor=none;fillColor=none;" parent="1" vertex="1">
          <mxGeometry x="1329" y="230" width="40" height="20" as="geometry" />
        </mxCell>
        <mxCell id="OYZd-i3R9D24Anv1cwW3-1" value="Envio" style="rounded=0;whiteSpace=wrap;html=1;fontStyle=1;fillColor=#f8cecc;strokeColor=#b85450;" vertex="1" parent="1">
          <mxGeometry x="548" y="645" width="120" height="40" as="geometry" />
        </mxCell>
        <mxCell id="OYZd-i3R9D24Anv1cwW3-2" style="edgeStyle=orthogonalEdgeStyle;rounded=0;orthogonalLoop=1;jettySize=auto;html=1;exitX=0.5;exitY=1;exitDx=0;exitDy=0;entryX=0.5;entryY=0;entryDx=0;entryDy=0;endArrow=none;endFill=0;" edge="1" parent="1" source="OYZd-i3R9D24Anv1cwW3-3" target="OYZd-i3R9D24Anv1cwW3-1">
          <mxGeometry relative="1" as="geometry" />
        </mxCell>
        <mxCell id="OYZd-i3R9D24Anv1cwW3-3" value="enviado" style="rhombus;whiteSpace=wrap;html=1;fillColor=#ffe6cc;strokeColor=#d79b00;" vertex="1" parent="1">
          <mxGeometry x="568" y="510" width="80" height="80" as="geometry" />
        </mxCell>
        <mxCell id="OYZd-i3R9D24Anv1cwW3-4" style="edgeStyle=orthogonalEdgeStyle;rounded=0;orthogonalLoop=1;jettySize=auto;html=1;exitX=0.971;exitY=0.977;exitDx=0;exitDy=0;endArrow=oval;endFill=0;exitPerimeter=0;" edge="1" parent="1">
          <mxGeometry relative="1" as="geometry">
            <mxPoint x="614" y="747.92" as="targetPoint" />
            <mxPoint x="613.52" y="685.0000000000001" as="sourcePoint" />
            <Array as="points">
              <mxPoint x="614" y="694.92" />
              <mxPoint x="614" y="694.92" />
            </Array>
          </mxGeometry>
        </mxCell>
        <mxCell id="OYZd-i3R9D24Anv1cwW3-5" style="edgeStyle=orthogonalEdgeStyle;rounded=0;orthogonalLoop=1;jettySize=auto;html=1;endArrow=oval;endFill=0;" edge="1" parent="1">
          <mxGeometry relative="1" as="geometry">
            <mxPoint x="601" y="727.92" as="targetPoint" />
            <mxPoint x="601" y="685.92" as="sourcePoint" />
            <Array as="points">
              <mxPoint x="601" y="685.92" />
            </Array>
          </mxGeometry>
        </mxCell>
        <mxCell id="OYZd-i3R9D24Anv1cwW3-6" value="direccion" style="text;html=1;align=center;verticalAlign=middle;resizable=0;points=[];autosize=1;strokeColor=none;fillColor=none;" vertex="1" parent="1">
          <mxGeometry x="540" y="716.92" width="60" height="20" as="geometry" />
        </mxCell>
        <mxCell id="OYZd-i3R9D24Anv1cwW3-7" value="(1,1)" style="text;html=1;align=center;verticalAlign=middle;resizable=0;points=[];autosize=1;strokeColor=none;fillColor=none;" vertex="1" parent="1">
          <mxGeometry x="608" y="625" width="40" height="20" as="geometry" />
        </mxCell>
        <mxCell id="OYZd-i3R9D24Anv1cwW3-8" value="costo" style="text;html=1;align=center;verticalAlign=middle;resizable=0;points=[];autosize=1;strokeColor=none;fillColor=none;" vertex="1" parent="1">
          <mxGeometry x="572" y="736.92" width="40" height="20" as="geometry" />
        </mxCell>
        <mxCell id="OYZd-i3R9D24Anv1cwW3-9" value="" style="curved=1;endArrow=oval;html=1;rounded=0;endFill=1;entryX=0.858;entryY=-0.025;entryDx=0;entryDy=0;entryPerimeter=0;" edge="1" parent="1" target="OYZd-i3R9D24Anv1cwW3-1">
          <mxGeometry width="50" height="50" relative="1" as="geometry">
            <mxPoint x="730" y="550" as="sourcePoint" />
            <mxPoint x="620" y="700" as="targetPoint" />
            <Array as="points">
              <mxPoint x="728" y="550" />
              <mxPoint x="680" y="580" />
            </Array>
          </mxGeometry>
        </mxCell>
      </root>
    </mxGraphModel>
  </diagram>
</mxfile>
